# xmcd
#
# Track frame offsets: 
#        150
#        30809
#        48926
#        66217
#        80206
#        99117
#        120290
#        136423
#        162152
#        181584
#        202918
#        229006
#        249404
#        267860
#        286253
#
# Disc length: 4229 seconds
#
# Revision: 0
# Processed by: cddbd v1.5.1PL0 Copyright (c) Steve Scherf et al.
# Submitted via: ExactAudioCopy v0.95a5
#
DISCID=b510830f
DTITLE=Rick Russell And The Cadillac Horns - Live At Harrys Disk 1
DYEAR=2005
DGENRE=Blues
TTITLE0=Kidney Stew
TTITLE1=T Bone Shuffle
TTITLE2=All Your Love
TTITLE3=Drinking Beer
TTITLE4=Sad Sad Day
TTITLE5=Things I Used To Do
TTITLE6=I Done Got Over It
TTITLE7=Shes Dynamite
TTITLE8=Wait On Time
TTITLE9=How Long Blues
TTITLE10=Just A Little Bit
TTITLE11=Bad Boy
TTITLE12=Side Track
TTITLE13=You Upset Me Baby
TTITLE14=Early In The Morning
EXTD=
EXTT0=
EXTT1=
EXTT2=
EXTT3=
EXTT4=
EXTT5=
EXTT6=
EXTT7=
EXTT8=
EXTT9=
EXTT10=
EXTT11=
EXTT12=
EXTT13=
EXTT14=
PLAYORDER=
